<svg id="Lag_1" data-name="Lag 1" xmlns="http://www.w3.org/2000/svg" viewBox="0 0 161.89 30.62"><defs><style>.cls-1{fill:#333;}</style></defs><title>Artboard 1</title><path class="cls-1" d="M48.23,18.35l-1.51,4.24H44.39L49.69,8h2.39l5.3,14.55H55.05l-1.53-4.24Zm2.67-7.82-2,5.88h4Z"/><polygon class="cls-1" points="73.01 18.66 77.7 8.04 80.68 8.04 80.68 22.59 78.45 22.59 78.45 11.32 74.11 21.3 71.91 21.3 67.56 11.32 67.56 22.59 65.34 22.59 65.34 8.04 68.31 8.04 73.01 18.66"/><path class="cls-1" d="M92.46,18.35l-1.52,4.24H88.61L93.91,8H96.3l5.3,14.55H99.27l-1.49-4.24Zm2.66-7.82-2,5.88h4Z"/><polygon class="cls-1" points="109.56 8.04 111.89 8.04 119.02 18.97 119.02 8.04 121.28 8.04 121.28 22.58 119 22.58 111.85 11.72 111.85 22.58 109.56 22.58 109.56 8.04"/><path class="cls-1" d="M130.52,8H134c4.86,0,7.75,2.72,7.75,7.27,0,4.74-3,7.28-7.75,7.28h-3.43Zm3.66,12.53c3.12,0,5.13-1.79,5.13-5.26s-2-5.24-5.13-5.24h-1.35v10.5Z"/><path class="cls-1" d="M152.74,18.35l-1.51,4.24H148.9L154.2,8h2.39l5.3,14.55h-2.37L158,18.35Zm2.66-7.82-2,5.88h4Z"/><path class="cls-1" d="M.55,0V30.66H31.23V0ZM12.23,18.73h-10V12.27l10-.06Zm-10,.37H12L2.19,28.73Zm10.34,0h6.76l10,9.91H2.49Zm.11-.41V12.21h6.5V18.7Zm6.91-6.44,10,0V18.7h-10Zm.29,6.85h9.73v9.62Zm-.06-7.26,9.79-9.92V11.8Zm-.49,0H12.53L2.47,1.62H29.31ZM12,11.8l-9.76,0V1.92Z"/></svg>
